<svg width="195" height="139" viewBox="0 0 195 139" fill="none" xmlns="http://www.w3.org/2000/svg">
<circle cx="8.57792" cy="9.02987" r="7.84998" transform="rotate(-0.327266 8.57792 9.02987)" fill="white" fill-opacity="0.4"/>
<circle cx="8.76139" cy="49.6103" r="7.84998" transform="rotate(-0.327266 8.76139 49.6103)" fill="white" fill-opacity="0.4"/>
<circle cx="8.94474" cy="90.1906" r="7.84998" transform="rotate(-0.327266 8.94474 90.1906)" fill="white" fill-opacity="0.4"/>
<circle cx="9.12809" cy="130.771" r="7.84998" transform="rotate(-0.327266 9.12809 130.771)" fill="white" fill-opacity="0.4"/>
<circle cx="126.66" cy="8.46902" r="7.84998" transform="rotate(-0.327266 126.66 8.46902)" fill="white" fill-opacity="0.4"/>
<circle cx="126.843" cy="49.0495" r="7.84998" transform="rotate(-0.327266 126.843 49.0495)" fill="white" fill-opacity="0.4"/>
<circle cx="127.027" cy="89.6298" r="7.84998" transform="rotate(-0.327266 127.027 89.6298)" fill="white" fill-opacity="0.4"/>
<circle cx="127.21" cy="130.21" r="7.84998" transform="rotate(-0.327266 127.21 130.21)" fill="white" fill-opacity="0.4"/>
<circle cx="67.6188" cy="8.74941" r="7.84998" transform="rotate(-0.327266 67.6188 8.74941)" fill="white" fill-opacity="0.4"/>
<circle cx="67.8023" cy="49.3299" r="7.84998" transform="rotate(-0.327266 67.8023 49.3299)" fill="white" fill-opacity="0.4"/>
<circle cx="67.9856" cy="89.9104" r="7.84998" transform="rotate(-0.327266 67.9856 89.9104)" fill="white" fill-opacity="0.4"/>
<circle cx="68.1691" cy="130.491" r="7.84998" transform="rotate(-0.327266 68.1691 130.491)" fill="white" fill-opacity="0.4"/>
<circle cx="185.701" cy="8.18862" r="7.84998" transform="rotate(-0.327266 185.701 8.18862)" fill="white" fill-opacity="0.4"/>
<circle cx="185.884" cy="48.769" r="7.84998" transform="rotate(-0.327266 185.884 48.769)" fill="white" fill-opacity="0.4"/>
<circle cx="186.068" cy="89.3494" r="7.84998" transform="rotate(-0.327266 186.068 89.3494)" fill="white" fill-opacity="0.4"/>
<circle cx="186.251" cy="129.93" r="7.84998" transform="rotate(-0.327266 186.251 129.93)" fill="white" fill-opacity="0.4"/>
</svg>
