<svg width="244" height="244" viewBox="0 0 244 244" fill="none" xmlns="http://www.w3.org/2000/svg">
<path d="M237.295 122.073C237.295 185.873 185.595 237.573 121.795 237.573C57.9947 237.573 6.29474 185.873 6.29474 122.073C6.29474 58.2731 57.9947 6.57312 121.795 6.57312C185.595 6.57312 237.295 58.2731 237.295 122.073Z" fill="#E6E7E8"/>
<path d="M121.795 243.873C54.6947 243.873 0.0947876 189.273 0.0947876 122.173C0.0947876 55.0731 54.6947 0.473145 121.795 0.473145C188.895 0.473145 243.495 55.0731 243.495 122.173C243.495 189.273 188.895 243.873 121.795 243.873ZM121.795 12.7731C61.4947 12.7731 12.4947 61.7732 12.4947 122.073C12.4947 182.373 61.4947 231.373 121.795 231.373C182.095 231.373 231.095 182.373 231.095 122.073C231.095 61.8731 181.995 12.7731 121.795 12.7731Z" fill="#3C2415"/>
<path d="M237.295 122.073H6.29474C6.29474 58.2731 57.9947 6.57312 121.795 6.57312C185.595 6.57312 237.295 58.2731 237.295 122.073Z" fill="#27AAE1"/>
<path d="M237.295 128.373H6.29474C2.89474 128.373 0.0947876 125.573 0.0947876 122.173C0.0947876 55.0731 54.6947 0.473145 121.795 0.473145C188.895 0.473145 243.495 55.0731 243.495 122.173C243.495 125.573 240.695 128.373 237.295 128.373ZM12.5948 115.873H230.895C227.695 58.4732 179.995 12.7731 121.795 12.7731C63.5947 12.7731 15.8948 58.4732 12.5948 115.873Z" fill="#3C2415"/>
<path d="M153.395 122.073C153.395 139.473 139.295 153.673 121.795 153.673C104.295 153.673 90.1948 139.573 90.1948 122.073C90.1948 104.573 104.295 90.4731 121.795 90.4731C139.295 90.4731 153.395 104.673 153.395 122.073Z" fill="white"/>
<path d="M121.795 159.873C100.995 159.873 83.9947 142.873 83.9947 122.073C83.9947 101.273 100.995 84.2732 121.795 84.2732C142.595 84.2732 159.595 101.273 159.595 122.073C159.595 142.973 142.595 159.873 121.795 159.873ZM121.795 96.7732C107.795 96.7732 96.3947 108.173 96.3947 122.173C96.3947 136.173 107.795 147.573 121.795 147.573C135.795 147.573 147.195 136.173 147.195 122.173C147.095 108.073 135.795 96.7732 121.795 96.7732Z" fill="#3C2415"/>
<path d="M17.5948 50.2732L72.2948 84.9732L93.2948 64.2732L52.6948 12.3732C48.4948 6.97324 40.4948 6.67324 35.7948 11.5732L15.4947 33.2732C10.6947 38.3732 11.6948 46.5732 17.5948 50.2732Z" fill="#EF4136"/>
<path d="M72.2947 91.2732C71.0947 91.2732 69.9946 90.9732 68.9946 90.2732L14.2947 55.5732C9.89469 52.7732 6.99466 48.2732 6.39466 43.0732C5.79466 37.8732 7.39464 32.7732 10.9946 28.9732L31.2947 7.47322C34.7947 3.77322 39.6947 1.77322 44.6947 2.07322C49.7947 2.27322 54.3947 4.77322 57.5947 8.67322L98.1947 60.5732C100.095 63.0732 99.8947 66.5732 97.6947 68.8732L76.6947 89.5732C75.4947 90.6732 73.8947 91.2732 72.2947 91.2732ZM43.8947 14.4732C42.9947 14.4732 41.5947 14.6732 40.2947 15.9732L19.9946 37.5732C18.5946 39.0732 18.5947 40.6732 18.6947 41.5732C18.7947 42.4732 19.1947 44.0732 20.8947 45.0732L71.3947 77.1732L84.8947 63.8732L47.7947 16.2732C46.5947 14.7732 44.9947 14.4732 44.0947 14.3732C44.0947 14.4732 43.9947 14.4732 43.8947 14.4732Z" fill="#3C2415"/>
<path d="M225.895 50.2731L171.195 84.9731L150.195 64.2731L190.795 12.3731C194.995 6.97312 202.995 6.67312 207.695 11.5731L227.995 33.1731C232.795 38.3731 231.795 46.5731 225.895 50.2731Z" fill="#EF4136"/>
<path d="M171.195 91.2732C169.595 91.2732 167.995 90.6732 166.795 89.4732L145.795 68.7732C143.495 66.5732 143.295 62.9732 145.295 60.4732L185.895 8.57318C188.995 4.57318 193.695 2.17318 198.795 1.97318C203.895 1.77318 208.795 3.67318 212.195 7.37318L232.495 28.9732C236.095 32.7732 237.695 37.8732 237.095 43.0732C236.495 48.2732 233.595 52.7732 229.195 55.5732L174.495 90.2732C173.495 90.8732 172.395 91.2732 171.195 91.2732ZM158.595 63.7732L172.095 77.0732L222.595 44.9732C224.295 43.8732 224.695 42.2732 224.795 41.4732C224.895 40.5732 224.895 38.9732 223.495 37.4732L203.195 15.8732C201.895 14.4732 200.195 14.2732 199.395 14.3732C198.595 14.3732 196.995 14.6732 195.695 16.2732L158.595 63.7732Z" fill="#3C2415"/>
</svg>
