<svg width="113" height="114" viewBox="0 0 113 114" fill="none" xmlns="http://www.w3.org/2000/svg">
<circle cx="56.7299" cy="57.0105" r="55.3755" transform="rotate(-0.446229 56.7299 57.0105)" fill="#323232"/>
<path d="M106.352 55.9123C106.841 -2.98821 45.1193 1.7014 57.6154 1.80509C88.4486 2.06092 111.858 26.6509 111.606 57.0121C111.354 87.3733 88.3428 112.341 57.5095 112.085C44.2281 111.975 105.863 114.813 106.352 55.9123Z" fill="black" fill-opacity="0.49"/>
<path d="M6.74675 55.2305C7.22478 -2.38219 66.2713 1.98626 54.6853 1.89012C26.0974 1.65292 1.66137 26.9946 1.41496 56.692C1.16855 86.3893 25.7783 112.057 54.3661 112.294C66.6803 112.396 6.26872 112.843 6.74675 55.2305Z" fill="white" fill-opacity="0.17"/>
<circle cx="56.7298" cy="57.0105" r="46.1462" transform="rotate(-0.446229 56.7298 57.0105)" fill="#46B5F9"/>
<path d="M31.0511 57.8697C31.3848 100.719 57.8067 103.15 57.8067 103.15C31.9253 103.351 10.7835 82.855 10.585 57.3699C10.3865 31.8848 31.2066 11.0616 57.0879 10.8601C82.9692 10.6585 30.0925 19.5377 31.0511 57.8697Z" fill="#9CE3FB"/>
<path d="M17.8467 58.6318C18.2317 108.073 68.2959 103.068 57.8068 103.15C31.9254 103.351 10.7835 82.8549 10.5851 57.3698C10.3866 31.8847 31.2066 11.0616 57.088 10.86C68.2363 10.7732 17.4616 9.19084 17.8467 58.6318Z" fill="white" fill-opacity="0.49"/>
<path d="M96.0581 56.1569C96.4684 6.71621 46.3302 10.915 56.8193 11.002C82.7005 11.2168 103.51 32.0506 103.298 57.5356C103.087 83.0205 81.9347 103.506 56.0535 103.291C44.9052 103.199 95.6479 105.598 96.0581 56.1569Z" fill="black" fill-opacity="0.49"/>
<circle cx="32.9059" cy="45.3295" r="6.59232" transform="rotate(-0.446229 32.9059 45.3295)" fill="#CDF1FD" fill-opacity="0.75"/>
<circle cx="42.6863" cy="31.409" r="4.61462" transform="rotate(-0.446229 42.6863 31.409)" fill="#CDF1FD" fill-opacity="0.75"/>
</svg>
