<svg width="244" height="245" viewBox="0 0 244 245" fill="none" xmlns="http://www.w3.org/2000/svg">
<path d="M237.695 122.473C237.695 186.273 185.995 237.973 122.195 237.973C58.3949 237.973 6.69482 186.273 6.69482 122.473C6.69482 58.6731 58.3949 6.97314 122.195 6.97314C185.995 6.97314 237.695 58.6731 237.695 122.473Z" fill="#E6E7E8"/>
<path d="M122.195 244.173C55.0948 244.173 0.494812 189.573 0.494812 122.473C0.494812 55.3731 55.0948 0.773071 122.195 0.773071C189.295 0.773071 243.895 55.3731 243.895 122.473C243.995 189.573 189.295 244.173 122.195 244.173ZM122.195 13.1731C61.8948 13.1731 12.8948 62.1731 12.8948 122.473C12.8948 182.773 61.8948 231.773 122.195 231.773C182.495 231.773 231.495 182.773 231.495 122.473C231.495 62.1731 182.495 13.1731 122.195 13.1731Z" fill="#3C2415"/>
<path d="M237.695 122.473H6.69482C6.69482 58.6731 58.3949 6.97314 122.195 6.97314C185.995 6.97314 237.695 58.6731 237.695 122.473Z" fill="#92278F"/>
<path d="M237.695 128.673H6.69479C3.29479 128.673 0.494812 125.873 0.494812 122.473C0.494812 55.3731 55.0948 0.773071 122.195 0.773071C189.295 0.773071 243.895 55.3731 243.895 122.473C243.995 125.873 241.195 128.673 237.695 128.673ZM13.0948 116.273H231.395C228.195 58.8731 180.495 13.1731 122.295 13.1731C63.9948 13.1731 16.2948 58.8731 13.0948 116.273Z" fill="#3C2415"/>
<path d="M153.795 122.473C153.795 139.873 139.695 154.073 122.195 154.073C104.695 154.073 90.5948 139.973 90.5948 122.473C90.5948 104.973 104.695 90.873 122.195 90.873C139.695 90.873 153.795 104.973 153.795 122.473Z" fill="white"/>
<path d="M122.195 160.273C101.395 160.273 84.3948 143.273 84.3948 122.473C84.3948 101.673 101.395 84.6731 122.195 84.6731C142.995 84.6731 159.995 101.673 159.995 122.473C159.995 143.273 143.095 160.273 122.195 160.273ZM122.195 97.0731C108.195 97.0731 96.7948 108.473 96.7948 122.473C96.7948 136.473 108.195 147.873 122.195 147.873C136.195 147.873 147.595 136.473 147.595 122.473C147.595 108.473 136.195 97.0731 122.195 97.0731Z" fill="#3C2415"/>
<path d="M18.5948 71.3731C43.9948 63.7731 64.0948 44.1731 72.4949 19.0731L72.8948 17.9732C72.8948 17.9732 66.6948 12.8731 56.5948 9.57313C19.6948 -2.22687 -9.10516 42.5732 17.7948 70.4732L18.5948 71.3731Z" fill="#F065A5"/>
<path d="M18.5948 77.5731C16.9948 77.5731 15.3948 76.9732 14.1948 75.6732L13.3948 74.8731C-0.805192 60.1731 -3.0052 39.5731 7.7948 22.2731C16.7948 7.77315 35.9948 -3.62683 58.5948 3.67317C69.6948 7.17317 76.5948 12.8732 76.8948 13.1732C78.8948 14.7732 79.5948 17.4732 78.7948 19.9732L78.3948 21.0731C69.3948 48.0731 47.6948 69.1731 20.3948 77.3731C19.7948 77.4731 19.1948 77.5731 18.5948 77.5731ZM44.3948 13.8731C32.1948 13.8731 22.8948 21.2731 18.1948 28.8731C12.6948 37.6731 10.1948 51.9732 20.3948 64.1732C40.9948 56.7732 57.4948 40.7731 65.3948 20.3731C62.8948 18.8731 59.1948 16.9732 54.6948 15.4732C51.0948 14.3732 47.6948 13.8731 44.3948 13.8731Z" fill="#3C2415"/>
<path d="M226.395 71.3731C200.995 63.7731 180.895 44.1731 172.495 19.0731L172.095 17.9732C172.095 17.9732 178.295 12.8731 188.395 9.57313C225.295 -2.22687 254.095 42.5732 227.195 70.4732L226.395 71.3731Z" fill="#F065A5"/>
<path d="M226.395 77.5731C225.795 77.5731 225.195 77.4731 224.595 77.2731C197.295 69.0731 175.595 47.9731 166.595 20.9731L166.195 19.8731C165.395 17.4731 166.195 14.7731 168.095 13.0731C168.395 12.8731 175.395 7.07308 186.395 3.57308C208.995 -3.62691 228.195 7.67312 237.195 22.1731C247.895 39.4731 245.695 60.0731 231.595 74.6731L230.695 75.5731C229.595 76.9731 227.995 77.5731 226.395 77.5731ZM179.595 20.3731C187.495 40.7731 203.995 56.7731 224.595 64.1731C234.695 51.9731 232.295 37.6731 226.795 28.8731C220.795 19.2731 207.695 9.97309 190.395 15.5731C185.695 16.9731 181.995 18.9731 179.595 20.3731Z" fill="#3C2415"/>
<path d="M165.395 75.273L145.495 38.373C144.595 36.673 142.795 35.473 140.895 35.173C138.895 34.873 136.995 35.573 135.595 36.973L122.295 50.773L108.995 36.973C107.595 35.573 105.695 34.873 103.695 35.173C101.695 35.473 99.9948 36.673 99.0948 38.373L79.0948 75.273C77.4948 78.273 78.5948 82.073 81.5948 83.673C82.4948 84.173 83.5948 84.373 84.4948 84.373C86.6948 84.373 88.8948 83.173 89.9948 81.073L105.895 51.673L117.795 63.973C117.795 63.973 117.895 63.973 117.895 64.073C117.895 64.073 117.895 64.173 117.995 64.173C118.095 64.273 118.295 64.373 118.395 64.473C118.595 64.573 118.695 64.773 118.895 64.873C119.095 64.973 119.295 65.073 119.495 65.173C119.695 65.273 119.795 65.373 119.995 65.473C120.195 65.573 120.395 65.573 120.595 65.673C120.795 65.773 120.995 65.773 121.195 65.873C121.395 65.873 121.595 65.873 121.795 65.973C121.995 65.973 122.195 65.973 122.395 65.973C122.595 65.973 122.795 65.973 122.995 65.973C123.195 65.973 123.395 65.973 123.595 65.873C123.795 65.873 123.995 65.773 124.095 65.773C124.295 65.673 124.495 65.673 124.695 65.573C124.895 65.473 124.995 65.373 125.195 65.273C125.395 65.173 125.595 65.073 125.795 64.973C125.995 64.873 126.095 64.673 126.295 64.573C126.395 64.473 126.595 64.373 126.695 64.273C126.695 64.273 126.695 64.173 126.795 64.173C126.795 64.173 126.895 64.173 126.895 64.073L138.795 51.773L154.695 81.173C155.795 83.273 157.995 84.473 160.195 84.473C161.195 84.473 162.195 84.273 163.095 83.773C165.895 82.073 166.995 78.273 165.395 75.273Z" fill="white"/>
</svg>
