<svg width="512" height="512" viewBox="0 0 512 512" fill="none" xmlns="http://www.w3.org/2000/svg">
<g clip-path="url(#clip0)">
<path d="M491.859 156.348C478.968 125.865 460.517 98.483 437.017 74.976C413.501 51.476 386.113 33.016 355.644 20.126C324.084 6.77501 290.553 0.00100708 255.992 0.00100708C221.438 0.00100708 187.909 6.77401 156.347 20.126C125.864 33.016 98.482 51.477 74.974 74.976C51.475 98.483 33.015 125.865 20.124 156.348C6.774 187.91 0 221.44 0 255.993C0 290.553 6.773 324.084 20.125 355.645C33.015 386.114 51.476 413.502 74.975 437.002C98.482 460.518 125.864 478.969 156.348 491.859C187.91 505.203 221.439 511.984 255.993 511.984C290.554 511.984 324.085 505.203 355.645 491.859C386.114 478.968 413.502 460.517 437.018 437.002C460.518 413.502 478.969 386.113 491.86 355.645C505.204 324.084 511.985 290.553 511.985 255.993C511.984 221.44 505.203 187.91 491.859 156.348Z" fill="#EA0012"/>
<path d="M0.10199 263.18C0.97699 295.194 7.69499 326.272 20.125 355.645C33.015 386.114 51.476 413.502 74.975 437.002C98.482 460.518 125.864 478.969 156.348 491.859C187.91 505.203 221.439 511.984 255.993 511.984C290.554 511.984 324.085 505.203 355.645 491.859C386.114 478.968 413.502 460.517 437.018 437.002C460.518 413.502 478.969 386.113 491.86 355.645C504.298 326.272 511.016 295.194 511.891 263.18H0.10199V263.18Z" fill="#E6E9ED"/>
<g filter="url(#filter0_i)">
<path d="M510.765 271.131C511.577 267.45 511.984 263.742 511.984 260.007C511.984 255.81 512.999 251.194 511.984 247.076C499.265 247.941 479.469 249.521 456.455 250.64C412.767 252.766 342.551 255.303 255.992 255.303C169.44 255.303 99.216 252.766 55.537 250.64C32.515 249.52 12.8965 247.42 0.178515 246.555C-0.844485 250.673 -1.32024e-05 255.81 -1.32024e-05 260.007C-1.32024e-05 263.742 0.405987 267.451 1.21899 271.131C42.749 273.888 134.246 278.822 255.992 278.822C377.738 278.822 469.234 273.888 510.765 271.131Z" fill="#434A54"/>
<path d="M255.992 179.92C208.162 179.92 169.255 218.834 169.255 266.657C169.255 314.479 208.163 353.385 255.992 353.385C303.821 353.385 342.728 314.478 342.728 266.657C342.728 218.834 303.822 179.92 255.992 179.92ZM255.992 305.218C234.739 305.218 217.444 287.91 217.444 266.657C217.444 245.403 234.738 228.109 255.992 228.109C277.253 228.109 294.531 245.403 294.531 266.657C294.531 287.909 277.253 305.218 255.992 305.218Z" fill="#434A54"/>
</g>
<g filter="url(#filter1_d)">
<path d="M309.334 266.656C309.334 296.115 285.443 319.99 255.992 319.99C226.54 319.99 202.658 296.115 202.658 266.656C202.658 237.203 226.54 213.329 255.992 213.329C285.443 213.33 309.334 237.204 309.334 266.656Z" fill="white"/>
</g>
<path opacity="0.2" d="M18.7492 159.669C6.30977 190.34 -0.00539844 222.748 -0.010351 255.987C0.000960464 289.233 6.314 321.652 18.7442 352.312C31.6199 384.068 50.54 412.568 74.9783 437.007C77.5027 439.531 80.0716 441.99 82.6737 444.392C61.7865 421.737 45.3866 395.891 33.8353 367.403C21.3846 336.723 15.0814 304.312 15.0821 271.08C15.0871 237.841 21.3895 205.419 33.8311 174.751C46.7025 142.987 65.6389 114.505 90.0722 90.0718C114.51 65.6342 142.993 46.6972 174.756 33.8264C205.415 21.3955 237.84 15.0881 271.074 15.0881C304.318 15.0754 336.722 21.3856 367.402 33.8363C395.885 45.3926 421.737 61.7883 444.391 82.6748C441.989 80.0726 439.531 77.5044 437.006 74.9793C412.567 50.541 384.062 31.6259 352.311 18.7453C321.65 6.31573 289.237 -0.00368021 255.981 -0.00439108C222.747 -0.00439388 190.334 6.31571 159.674 18.7445C127.922 31.6259 99.4166 50.541 74.979 74.9786C50.5457 99.412 31.6313 127.916 18.7492 159.669Z" fill="white"/>
<path opacity="0.1" d="M493.24 352.311C505.67 321.652 511.982 289.232 511.983 255.999C511.989 222.748 505.674 190.339 493.233 159.669C480.351 127.916 461.438 99.4126 437.004 74.9793C434.48 72.4549 431.911 69.9963 429.309 67.5935C450.196 90.2485 466.596 116.107 478.153 144.589C490.592 175.259 496.902 207.662 496.896 240.912C496.901 274.151 490.582 306.566 478.159 337.23C465.284 368.988 446.357 397.481 421.919 421.92C397.485 446.353 368.993 465.279 337.234 478.156C306.559 490.59 274.148 496.905 240.911 496.899C207.667 496.899 175.257 490.596 144.587 478.156C116.099 466.605 90.2469 450.199 67.5919 429.312C69.9953 431.913 72.4539 434.482 74.9783 437.007C99.4117 461.44 127.909 480.359 159.668 493.236C190.338 505.676 222.754 511.984 255.998 511.985C289.231 511.985 321.646 505.676 352.316 493.236C384.074 480.359 412.573 461.439 437.006 437.007C461.443 412.569 480.364 384.068 493.24 352.311Z" fill="black"/>
<circle cx="131.146" cy="126.538" r="32.0231" fill="white" fill-opacity="0.42"/>
<circle cx="176.384" cy="182.471" r="13.214" fill="white" fill-opacity="0.42"/>
</g>
<defs>
<filter id="filter0_i" x="-0.327545" y="179.92" width="515.763" height="178.465" filterUnits="userSpaceOnUse" color-interpolation-filters="sRGB">
<feFlood flood-opacity="0" result="BackgroundImageFix"/>
<feBlend mode="normal" in="SourceGraphic" in2="BackgroundImageFix" result="shape"/>
<feColorMatrix in="SourceAlpha" type="matrix" values="0 0 0 0 0 0 0 0 0 0 0 0 0 0 0 0 0 0 127 0" result="hardAlpha"/>
<feOffset dx="3" dy="5"/>
<feGaussianBlur stdDeviation="3.5"/>
<feComposite in2="hardAlpha" operator="arithmetic" k2="-1" k3="1"/>
<feColorMatrix type="matrix" values="0 0 0 0 0 0 0 0 0 0 0 0 0 0 0 0 0 0 1 0"/>
<feBlend mode="normal" in2="shape" result="effect1_innerShadow"/>
</filter>
<filter id="filter1_d" x="202.658" y="213.329" width="109.676" height="111.661" filterUnits="userSpaceOnUse" color-interpolation-filters="sRGB">
<feFlood flood-opacity="0" result="BackgroundImageFix"/>
<feColorMatrix in="SourceAlpha" type="matrix" values="0 0 0 0 0 0 0 0 0 0 0 0 0 0 0 0 0 0 127 0"/>
<feOffset dx="3" dy="5"/>
<feColorMatrix type="matrix" values="0 0 0 0 0 0 0 0 0 0 0 0 0 0 0 0 0 0 1 0"/>
<feBlend mode="normal" in2="BackgroundImageFix" result="effect1_dropShadow"/>
<feBlend mode="normal" in="SourceGraphic" in2="effect1_dropShadow" result="shape"/>
</filter>
<clipPath id="clip0">
<rect width="511.985" height="511.985" fill="white"/>
</clipPath>
</defs>
</svg>
