<svg width="244" height="244" viewBox="0 0 244 244" fill="none" xmlns="http://www.w3.org/2000/svg">
<path d="M237.695 122.073C237.695 185.873 185.995 237.573 122.195 237.573C58.3947 237.573 6.59473 185.873 6.59473 122.073C6.59473 58.273 58.2947 6.573 122.095 6.573C185.895 6.573 237.695 58.273 237.695 122.073Z" fill="#E6E7E8"/>
<path d="M122.095 243.873C54.9947 243.873 0.394714 189.273 0.394714 122.173C0.394714 55.073 54.9947 0.473022 122.095 0.473022C189.195 0.473022 243.795 55.073 243.795 122.173C243.895 189.273 189.295 243.873 122.095 243.873ZM122.095 12.773C61.7947 12.773 12.7947 61.773 12.7947 122.073C12.7947 182.373 61.7947 231.373 122.095 231.373C182.395 231.373 231.395 182.373 231.395 122.073C231.395 61.873 182.395 12.773 122.095 12.773Z" fill="#3C2415"/>
<path d="M237.695 122.073H6.69466C6.59466 58.273 58.2947 6.573 122.095 6.573C185.895 6.573 237.695 58.273 237.695 122.073Z" fill="#E33D2E"/>
<path d="M237.695 128.373H6.69469C3.29469 128.373 0.49469 125.573 0.49469 122.173C0.49469 55.073 55.0947 0.473022 122.195 0.473022C189.295 0.473022 243.895 55.073 243.895 122.173C243.895 125.573 241.095 128.373 237.695 128.373ZM12.9947 115.873H231.295C227.995 58.473 180.295 12.773 122.095 12.773C63.8947 12.773 16.1947 58.473 12.9947 115.873Z" fill="#3C2415"/>
<path d="M153.695 122.073C153.695 139.473 139.595 153.673 122.095 153.673C104.595 153.673 90.4947 139.573 90.4947 122.073C90.4947 104.573 104.595 90.473 122.095 90.473C139.595 90.473 153.695 104.673 153.695 122.073Z" fill="white"/>
<path d="M122.095 159.873C101.195 159.873 84.2947 142.873 84.2947 122.073C84.2947 101.273 101.295 84.2731 122.095 84.2731C142.895 84.2731 159.895 101.273 159.895 122.073C159.895 142.973 142.995 159.873 122.095 159.873ZM122.095 96.7731C108.095 96.7731 96.6947 108.173 96.6947 122.173C96.6947 136.173 108.095 147.573 122.095 147.573C136.095 147.573 147.495 136.173 147.495 122.173C147.495 108.073 136.095 96.7731 122.095 96.7731Z" fill="#3C2415"/>
</svg>
